<?xml version="1.0" standalone="no"?><svg xmlns="http://www.w3.org/2000/svg" viewBox="0 0 1440 320"><path fill="#0099ff" fill-opacity="1" d="M0,160L21.8,176C43.6,192,87,224,131,218.7C174.5,213,218,171,262,133.3C305.5,96,349,64,393,80C436.4,96,480,160,524,202.7C567.3,245,611,267,655,240C698.2,213,742,139,785,128C829.1,117,873,171,916,186.7C960,203,1004,181,1047,160C1090.9,139,1135,117,1178,117.3C1221.8,117,1265,139,1309,144C1352.7,149,1396,139,1418,133.3L1440,128L1440,0L1418.2,0C1396.4,0,1353,0,1309,0C1265.5,0,1222,0,1178,0C1134.5,0,1091,0,1047,0C1003.6,0,960,0,916,0C872.7,0,829,0,785,0C741.8,0,698,0,655,0C610.9,0,567,0,524,0C480,0,436,0,393,0C349.1,0,305,0,262,0C218.2,0,175,0,131,0C87.3,0,44,0,22,0L0,0Z"></path></svg>